<svg width="5" height="9" viewBox="0 0 5 9" fill="none" xmlns="http://www.w3.org/2000/svg">
<path d="M4.29136 0.00883551C4.37924 0.0077695 4.46643 0.0250997 4.54774 0.0597958C4.62905 0.0944919 4.70282 0.145845 4.76466 0.210799C4.89214 0.345405 4.96359 0.526765 4.96359 0.715707C4.96359 0.90465 4.89214 1.08601 4.76466 1.22062L1.64573 4.50252L4.80107 7.78443C4.92855 7.91904 5 8.1004 5 8.28934C5 8.47828 4.92855 8.65964 4.80107 8.79425C4.67371 8.92606 4.50136 9.00005 4.3217 9.00005C4.14204 9.00005 3.96968 8.92606 3.84233 8.79425L0.201553 5.00743C0.0740754 4.87283 0.0026194 4.69147 0.00261938 4.50252C0.00261935 4.31358 0.0740753 4.13222 0.201553 3.99762L3.84233 0.210799C3.96204 0.0867963 4.1225 0.014623 4.29136 0.00883551Z" fill="#00B6C9"/>
</svg>
